<?xml version="1.0" standalone="no"?>
<!DOCTYPE svg PUBLIC "-//W3C//DTD SVG 20010904//EN"
 "http://www.w3.org/TR/2001/REC-SVG-20010904/DTD/svg10.dtd">
<svg version="1.0" xmlns="http://www.w3.org/2000/svg"
 width="512.000000pt" height="512.000000pt" viewBox="0 0 512.000000 512.000000"
 preserveAspectRatio="xMidYMid meet">
<metadata>
Created by potrace 1.16, written by Peter Selinger 2001-2019
</metadata>
<g transform="translate(0.000000,512.000000) scale(0.100000,-0.100000)"
fill="#000000" stroke="none">
<path d="M0 2560 l0 -2560 2560 0 2560 0 0 2560 0 2560 -2560 0 -2560 0 0
-2560z m2641 1753 c39 -76 91 -174 114 -218 46 -86 402 -762 492 -935 31 -58
75 -141 98 -185 23 -44 65 -123 92 -175 28 -52 100 -189 160 -305 61 -115 204
-388 318 -605 114 -217 226 -431 250 -475 200 -377 387 -736 384 -739 -2 -2
-179 126 -394 285 -214 160 -408 301 -430 316 -22 14 -42 29 -45 33 -3 3 -72
56 -155 116 -82 60 -190 140 -240 176 l-90 67 -315 625 -315 625 -314 -627
-314 -627 -56 -40 c-31 -21 -169 -123 -306 -225 -713 -527 -989 -729 -993
-726 -1 2 8 23 21 47 13 24 59 112 102 194 43 83 81 155 85 160 4 6 47 87 95
180 48 94 102 197 120 230 18 33 58 108 89 168 31 59 81 155 112 215 31 59 71
134 89 167 18 33 67 128 110 210 43 83 137 263 210 400 73 138 163 309 200
380 37 72 80 153 95 180 15 28 58 109 95 180 37 72 84 162 105 200 20 39 67
126 103 195 36 69 93 177 126 240 34 63 98 186 143 273 46 86 83 157 85 157 1
0 34 -62 74 -137z"/>
</g>
</svg>
